<svg xmlns="http://www.w3.org/2000/svg" viewBox="0 0 720 720"><path fill="#555" d="M186.6 449.4c4.6 0 8.4 1.7 11 5.3 3.5-3.7 7.3-5.3 12.5-5.3 4.2 0 7.9 1.4 10.2 3.7 3.4 3.4 4.6 7.3 4.6 11.8v19.8c0 2.5-.1 3.5-.7 4.6-.8 1.5-2.4 2.5-4.5 2.5s-3.8-1-4.5-2.5c-.6-1.1-.7-2.1-.7-4.6v-18.4c0-5.6-3.6-7.5-6.9-7.5-3.2 0-7 1.9-7 7.3v18.6c0 2.5-.1 3.5-.7 4.6-.8 1.5-2.4 2.5-4.5 2.5s-3.8-1-4.5-2.5c-.6-1.1-.7-2.1-.7-4.6v-18.4c0-5.6-3.6-7.5-6.9-7.5-3.3 0-7 1.9-7 7.5v18.4c0 2.5-.1 3.5-.7 4.6-.8 1.5-2.4 2.5-4.5 2.5s-3.8-1-4.5-2.5c-.6-1.1-.7-2.1-.7-4.6v-28.1c0-2.7.1-3.5.8-4.7a5.1 5.1 0 0 1 4.5-2.4c1.4 0 2.5.4 3.3 1.2.8.8 1.2 1.6 1.6 3 2.7-2.8 6.6-4.3 10.5-4.3zM243.1 460.2a7 7 0 0 1-3.4 1.1c-1 0-2.2-.4-3-1.4-.8-1-1.2-1.9-1.2-3.1 0-2.3 2-4 3.9-5 3-1.6 6.3-2.4 10.5-2.4 11.6 0 17.6 5 17.6 14.7v20.7c0 2.7-.1 3.5-.8 4.7a5.1 5.1 0 0 1-4.5 2.4c-1.4 0-2.5-.4-3.3-1.2a4.8 4.8 0 0 1-1.5-2.8c-3 3-5.6 4.1-10.3 4.1-4.7 0-8.2-1.3-10.6-3.8a13.4 13.4 0 0 1-3.4-9.4c0-6.6 4.6-12.1 14.4-12.1h9.7v-2.1c0-4.6-2.4-6.6-7.3-6.6a14 14 0 0 0-6.8 2.2zm14 13.8h-7.9c-4.2 0-6.2 1.7-6.2 4.8 0 2.9 2 4.7 6.3 4.7 2.6 0 4.4-.3 6.2-2 1.2-1.2 1.6-2.6 1.6-5.3V474zM284.3 491.8a7 7 0 0 1-7-7c0-3.8 3.1-7 7-7s7 3.1 7 7a7 7 0 0 1-7 7zM322.1 449.4c4.6 0 8.4 1.7 11 5.3 3.5-3.7 7.3-5.3 12.5-5.3 4.2 0 7.9 1.4 10.2 3.7 3.4 3.4 4.6 7.3 4.6 11.8v19.8c0 2.5-.1 3.5-.7 4.6-.8 1.5-2.4 2.5-4.5 2.5s-3.8-1-4.5-2.5c-.6-1.1-.7-2.1-.7-4.6v-18.4c0-5.6-3.6-7.5-6.9-7.5-3.2 0-7 1.9-7 7.3v18.6c0 2.5-.1 3.5-.7 4.6-.8 1.5-2.4 2.5-4.5 2.5s-3.8-1-4.5-2.5c-.6-1.1-.7-2.1-.7-4.6v-18.4c0-5.6-3.6-7.5-6.9-7.5-3.3 0-7 1.9-7 7.5v18.4c0 2.5-.1 3.5-.7 4.6-.8 1.5-2.4 2.5-4.5 2.5s-3.8-1-4.5-2.5c-.6-1.1-.7-2.1-.7-4.6v-28.1c0-2.7.1-3.5.8-4.7a5.1 5.1 0 0 1 4.5-2.4c1.4 0 2.5.4 3.3 1.2.8.8 1.2 1.6 1.6 3 2.7-2.8 6.6-4.3 10.5-4.3zM378.6 460.2a7 7 0 0 1-3.4 1.1c-1 0-2.2-.4-3-1.4-.8-1-1.2-1.9-1.2-3.1 0-2.3 2-4 3.9-5 3-1.6 6.3-2.4 10.5-2.4 11.6 0 17.6 5 17.6 14.7v20.7c0 2.7-.1 3.5-.8 4.7a5.1 5.1 0 0 1-4.5 2.4c-1.4 0-2.5-.4-3.3-1.2a4.8 4.8 0 0 1-1.5-2.8c-3 3-5.6 4.1-10.3 4.1-4.7 0-8.2-1.3-10.6-3.8a13.4 13.4 0 0 1-3.4-9.4c0-6.6 4.6-12.1 14.4-12.1h9.7v-2.1c0-4.6-2.4-6.6-7.3-6.6a14 14 0 0 0-6.8 2.2zm14 13.8h-7.9c-4.2 0-6.2 1.7-6.2 4.8 0 2.9 2 4.7 6.3 4.7 2.6 0 4.4-.3 6.2-2 1.2-1.2 1.6-2.6 1.6-5.3V474zM419.4 432.2a6 6 0 0 1 6 6c0 3.3-2.7 6-6 6s-6-2.7-6-6a6 6 0 0 1 6-6zm4.5 57.2a4.9 4.9 0 0 1-4.5 2.5c-2.1 0-3.8-1-4.5-2.5-.6-1.1-.7-2.1-.7-4.6v-26.9c0-2.5.1-3.5.7-4.6a4.9 4.9 0 0 1 4.5-2.5c2.1 0 3.8 1 4.5 2.5.6 1.1.7 2.1.7 4.6v26.9c0 2.5-.1 3.5-.7 4.6zM461.1 451.4c1.4.6 2.7 1.4 3.3 2a4 4 0 0 1 1.1 2.9c0 1.2-.6 2.5-1.4 3.2-.8.8-1.7 1.2-2.9 1.2-.8 0-1.9-.4-3-.9a18.4 18.4 0 0 0-8.1-2.1c-4 0-5.9 2-5.9 4.1 0 2.4 1.6 3.4 4.3 3.6l6.5.6c8.2.8 12.4 5.1 12.4 12.2 0 9.2-7.8 13.6-17.6 13.6-6.6 0-10.7-1.2-14.4-3.7-1.4-1-2.5-2.3-2.5-4 0-1.4.6-2.7 1.7-3.6.9-.7 1.7-1 2.8-1 1 0 2.1.4 3.4 1.2 2.8 1.7 5.4 2.4 9.2 2.4 3.8 0 7.4-1.4 7.4-4.5 0-2-1.1-3.6-4.4-3.9l-6.6-.6c-7.5-.7-12.2-4.1-12.2-11.8 0-8.6 7.6-13.2 16.2-13.2 4.1.3 7.5 1 10.7 2.3zM505.1 486.9a17.2 17.2 0 0 1-12.9 5.1c-6.2 0-10.3-2.4-12.9-5.1-3.8-4-4.8-8.6-4.8-16.2s1-12.2 4.8-16.2c2.6-2.7 6.7-5.1 12.9-5.1s10.3 2.4 12.9 5.1c3.8 4 4.8 8.6 4.8 16.2s-1 12.2-4.8 16.2zm-17.8-6.1a6.5 6.5 0 0 0 4.8 1.8c2.1 0 3.6-.6 4.8-1.8 2.1-2.1 2.4-5.7 2.4-10.1 0-4.4-.3-8-2.4-10.1a6.5 6.5 0 0 0-4.8-1.8c-2.1 0-3.6.6-4.8 1.8-2.1 2.1-2.4 5.7-2.4 10.1 0 4.4.3 8 2.4 10.1zM540.3 449.4c4.2 0 7.5 1.4 9.8 3.7 3.4 3.4 4.2 7.3 4.2 11.8v19.8c0 2.5-.1 3.5-.7 4.6a4.9 4.9 0 0 1-4.5 2.5c-2.1 0-3.8-1-4.5-2.5-.6-1.1-.7-2.1-.7-4.6v-18.4c0-5.6-3.6-7.5-6.9-7.5s-7 1.9-7 7.5v18.4c0 2.5-.1 3.5-.7 4.6a4.9 4.9 0 0 1-4.5 2.5c-2.1 0-3.8-1-4.5-2.5-.6-1.1-.7-2.1-.7-4.6v-28.1c0-2.7.1-3.5.8-4.7a5.1 5.1 0 0 1 4.5-2.4c1.4 0 2.5.4 3.3 1.2.8.8 1.2 1.6 1.6 3 2.7-2.8 6.7-4.3 10.5-4.3zM426.9 367.6h33.5c2.9 0 5.2-2.4 5.2-5.2v-73.7-26.6c0-3.7-3.6-5.1-6.3-6.7l-13-7.5-83.7-48.3a5.5 5.5 0 0 0-5.3 0l-100.4 57.9a5.2 5.2 0 0 0-2.6 4.5v100.4c0 2.9 2.4 5.2 5.2 5.2h66.9c2.9 0 5.2-2.4 5.2-5.2v-66.9l-9.8 2.6 33.5 57.9c2 3.4 7.1 3.4 9.1 0l33.5-57.9-9.8-2.6v100.4c0 6.8 10.5 6.8 10.5 0V295.5c0-5.2-7.2-7.2-9.8-2.6l-33.5 57.9h9.1l-33.5-57.9c-2.6-4.5-9.8-2.6-9.8 2.6v66.9l5.2-5.2h-66.9l5.2 5.2V262l-2.6 4.5 100.4-57.9h-5.3l100.4 57.9-2.6-4.5v100.4l5.2-5.2h-33.5c-6.5-.1-6.5 10.4.3 10.4z"/></svg>
